<svg xmlns="http://www.w3.org/2000/svg" viewBox="0 0 512 512">
  <defs>
    <linearGradient id="bg" x1="68" y1="28" x2="440" y2="492">
      <stop offset="0" stop-color="#FFFFFF"/>
      <stop offset="0.62" stop-color="#FFFEFB"/>
      <stop offset="1" stop-color="#FAF7EF"/>
    </linearGradient>
    <linearGradient id="gold" x1="155" y1="52" x2="386" y2="462">
      <stop offset="0" stop-color="#B8860B"/>
      <stop offset="0.33" stop-color="#F5D76E"/>
      <stop offset="0.62" stop-color="#C9A227"/>
      <stop offset="1" stop-color="#8F6508"/>
    </linearGradient>
    <linearGradient id="inner" x1="160" y1="26" x2="380" y2="468">
      <stop offset="0" stop-color="#FFF0A8"/>
      <stop offset="0.45" stop-color="#C9A227"/>
      <stop offset="1" stop-color="#8A5F08"/>
    </linearGradient>
    <linearGradient id="shine" x1="126" y1="44" x2="340" y2="380">
      <stop offset="0" stop-color="#FFFFFF" stop-opacity="0.82"/>
      <stop offset="0.36" stop-color="#FFFFFF" stop-opacity="0.18"/>
      <stop offset="1" stop-color="#FFFFFF" stop-opacity="0"/>
    </linearGradient>
    <filter id="shadow" x="-16%" y="-12%" width="132%" height="130%">
      <feDropShadow dx="0" dy="12" stdDeviation="16" flood-color="#111111" flood-opacity="0.22"/>
    </filter>
  </defs>
  <rect x="28" y="28" width="456" height="456" rx="96" fill="url(#bg)" stroke="#E8DDBF" stroke-width="10"/>
  <path d="M154 82H259C330 82 376 119 376 175C376 215 354 243 322 256C368 267 397 305 397 354C397 420 346 460 262 460H154V82ZM250 231C295 231 319 211 319 178C319 147 295 129 254 129H214V231H250ZM264 411C315 411 342 388 342 350C342 312 313 290 262 290H214V411H264Z" fill="url(#gold)" filter="url(#shadow)"/>
  <path d="M214 129H254C295 129 319 147 319 178C319 211 295 231 250 231H214V129ZM214 290H262C313 290 342 312 342 350C342 388 315 411 264 411H214V290Z" fill="url(#inner)" opacity="0.38"/>
  <path d="M190 95H267C327 95 359 125 359 174C359 207 339 233 305 247" fill="none" stroke="url(#shine)" stroke-width="22" stroke-linecap="round"/>
</svg>
